<svg xmlns="http://www.w3.org/2000/svg" width="216" height="166" fill="none"><g filter="url(#a)"><path d="M194 18H22a4 4 0 0 0-4 4v122a4 4 0 0 0 4 4h172a4 4 0 0 0 4-4V22a4 4 0 0 0-4-4z" fill="#fff"/></g><path d="M198 39H18v3h180v-3z" fill="#F0F1F2"/><path d="M30 30.774c1.763 0 1.861-1.774 3.918-1.774 2.107 0 2.107 2 4.164 2 2.057 0 2.155-1.774 4.114-1.774 1.96 0 1.91 1.774 3.918 1.774s2.155-1.774 4.066-1.774C52.09 29.226 52.776 31 54 31" stroke="#D2D5D9" stroke-width="2" stroke-linecap="round" stroke-linejoin="round"/><rect x="116" y="58" width="48" height="6" rx="3" fill="#B6BABF"/><rect x="116" y="68" width="20" height="4" rx="2" fill="#E8E9EB"/><rect x="116" y="104" width="71" height="4" rx="2" fill="#E8E9EB"/><rect x="116" y="113" width="71" height="4" rx="2" fill="#E8E9EB"/><rect x="116" y="122" width="37" height="4" rx="2" fill="#E8E9EB"/><rect x="116" y="81" width="40" height="12" rx="2" fill="#4188FF"/><g clip-path="url(#b)"><path d="M67.756 58.678a10.857 10.857 0 0 1-8.99 4.234c0-.008-.126.014-.132 0-.001.014-1.055-.032-1.049-.017-3.641-.211-6.416-1.583-7.988-2.554l-.935-.458-.194-.07-.227.002-.187.048c-4.677 2.224-4.888.421-8.562 2.549-3.72 2.154-8.058 7.251-14.46 14.54-.431.489-.972.956-1.046 1.598.013.03.026.06.032.09a.927.927 0 0 0-.051.246c.16.413.414 1.08.756 1.9 2.255 5.398 5.8 8.025 8.138 11.242.115.16.34.21.514.118l6.047-3.95a.402.402 0 0 1 .588.35c-1.303 8.325.638 13.441 2.044 19.443.894 4.579 2.137 10.865 1.023 17.169-.002.036.018.074.023.111l.044.135a.79.79 0 0 0 .288.347.693.693 0 0 0 .265.103 22.25 22.25 0 0 0 2.21 1.485c10.84 6.417 24.793 2.889 34.623-1.142.52-.102 1.04-.226 1.555-.38 1.148-.05 5.873-1.699 7.586-3.287 0 0 .001-.015-.215-5.163a5.21 5.21 0 0 0 .013-.586c-.217-5.134-.265-11.894-2.2-19.534a73.112 73.112 0 0 0-4.581-12.87.389.389 0 0 1 .472-.177l7.342 2.567c.187.062-7.61-13.014-7.512-13.192 2.162-4.012 12.324 4.975 14.487.955.279-.512.553-1.076.527-1.642a1.6 1.6 0 0 0-.02-.647c-.163-.611-.765-.991-1.262-1.401-7.36-6.186-12.362-10.525-16.343-12.099 0 0-7.023-1.866-9.955-1.405" fill="#F0F2FF"/><path d="M57.31 131.887a31.87 31.87 0 0 1-2.224-.232.558.558 0 0 1 .152-1.103c.698.1 1.42.171 2.144.221.3.017.534.282.509.592a.55.55 0 0 1-.58.515v.007zm3.658.049a.557.557 0 0 1 .013-1.11 38 38 0 0 0 2.165-.142.552.552 0 0 1 .595.501.551.551 0 0 1-.497.601c-.745.068-1.496.121-2.224.146l-.051-.003v.007zm-9.427-1.02a.315.315 0 0 1-.116-.022 25.71 25.71 0 0 1-2.131-.701.546.546 0 0 1-.318-.715.54.54 0 0 1 .708-.322c.668.254 1.352.479 2.045.667a.555.555 0 0 1-.18 1.086l-.008.007zm15.253.387a.548.548 0 0 1-.51-.459.558.558 0 0 1 .449-.641c.719-.129 1.431-.265 2.137-.425a.545.545 0 0 1 .65.423.552.552 0 0 1-.419.658c-.72.158-1.448.301-2.182.429-.044.005-.081.01-.125.007v.008zm-20.663-2.627a.479.479 0 0 1-.237-.073c-.157-.09-.313-.181-.476-.272a20.897 20.897 0 0 1-1.429-.927.564.564 0 0 1-.138-.771.553.553 0 0 1 .763-.141c.452.315.911.616 1.365.887.149.09.298.18.454.263a.55.55 0 0 1 .206.753.543.543 0 0 1-.508.281zm26.374 1.298a.55.55 0 0 1-.498-.399.548.548 0 0 1 .377-.682 64.452 64.452 0 0 0 2.084-.635.547.547 0 0 1 .691.359.554.554 0 0 1-.356.698c-.695.226-1.405.444-2.121.647a.492.492 0 0 1-.184.019l.007-.007zm5.566-1.856a.558.558 0 0 1-.165-1.076 98.376 98.376 0 0 0 2.035-.801c.278-.117.6.02.716.301a.56.56 0 0 1-.299.724c-.668.272-1.36.551-2.057.814a.574.574 0 0 1-.222.031l-.008.007zm-34.987-3.574-.03-.002a.557.557 0 0 1-.485-.613c.062-.567.11-1.135.142-1.696l.028-.48a.552.552 0 0 1 .574-.53c.306.04.542.269.524.579l-.029.495c-.034.59-.083 1.18-.153 1.754a.55.55 0 0 1-.578.493h.007zm40.588 1.876a.544.544 0 0 1-.491-.384.553.553 0 0 1 .356-.698c.65-.207 1.347-.47 2.024-.749.278-.118.6.02.716.3a.56.56 0 0 1-.298.724c-.7.293-1.435.569-2.107.782a.626.626 0 0 1-.2.025zm5.302-2.493a.543.543 0 0 1-.412-.224.564.564 0 0 1 .118-.778c.084-.062.169-.124.238-.187l-.055-1.322a.555.555 0 0 1 .525-.577.547.547 0 0 1 .57.53l.07 1.604-.014.229-.165.183a6.025 6.025 0 0 1-.524.436.528.528 0 0 1-.358.106h.007zm-45.746-5.287a.542.542 0 0 1-.513-.518c-.04-.706-.1-1.443-.174-2.188a.552.552 0 0 1 .49-.609.553.553 0 0 1 .602.494c.08.76.14 1.512.178 2.24a.554.554 0 0 1-.518.585l-.065-.004zm46.016-.387a.55.55 0 0 1-.516-.586c.009-.155.018-.31.005-.473-.02-.55-.045-1.114-.063-1.693a.554.554 0 0 1 .532-.577.547.547 0 0 1 .57.537c.018.579.044 1.143.064 1.685.011.194.008.386-.004.578a.551.551 0 0 1-.58.522l-.008.007zm-46.696-5.482a.557.557 0 0 1-.51-.46 83.96 83.96 0 0 0-.387-2.17.553.553 0 0 1 .441-.649.548.548 0 0 1 .642.445c.135.704.261 1.437.386 2.193a.557.557 0 0 1-.455.64c-.044.005-.081.01-.125.008l.008-.007zm46.48-.428a.543.543 0 0 1-.512-.526c-.04-.713-.077-1.449-.13-2.2a.557.557 0 0 1 .512-.593.548.548 0 0 1 .587.516c.051.758.096 1.502.135 2.223a.56.56 0 0 1-.518.585l-.059-.004-.014-.001zm-47.656-5.367a.557.557 0 0 1-.504-.415l-.536-2.149a.548.548 0 1 1 1.065-.272l.536 2.15c.07.3-.109.601-.399.673-.052.012-.11.016-.17.012l.008.001zm47.191-.527a.557.557 0 0 1-.514-.489 62.066 62.066 0 0 0-.285-2.18.562.562 0 0 1 .462-.632.554.554 0 0 1 .626.465c.11.755.2 1.494.282 2.217a.555.555 0 0 1-.483.617c-.029-.002-.066.003-.095.002h.007zm-48.538-5.226a.564.564 0 0 1-.51-.444 41.85 41.85 0 0 1-.363-2.222.55.55 0 0 1 .47-.624.55.55 0 0 1 .617.472c.092.702.213 1.406.36 2.155a.555.555 0 0 1-.434.649.43.43 0 0 1-.14.007v.007zm47.63-.62a.547.547 0 0 1-.503-.444c-.143-.705-.3-1.418-.478-2.146a.552.552 0 1 1 1.072-.264c.178.736.341 1.464.483 2.183.063.3-.13.593-.427.657a.42.42 0 0 1-.14.014h-.008zm-48.28-5.248a.558.558 0 0 1-.52-.541 32.792 32.792 0 0 1 .029-2.258.561.561 0 0 1 .573-.53.55.55 0 0 1 .517.578 30.65 30.65 0 0 0-.023 2.177.558.558 0 0 1-.54.569l-.044-.003.007.008zM33.34 92.76a.553.553 0 0 1-.264-1.015l1.838-1.213a.541.541 0 0 1 .761.163.553.553 0 0 1-.162.768l-1.838 1.212a.538.538 0 0 1-.336.092v-.007zm52.878 2.114a.544.544 0 0 1-.491-.392 80.518 80.518 0 0 0-.656-2.097.564.564 0 0 1 .349-.706.552.552 0 0 1 .698.351c.232.695.455 1.405.67 2.128a.556.556 0 0 1-.563.716h-.007zm-55.382-4.37a.529.529 0 0 1-.378-.186l-.688-.78c-.255-.29-.517-.578-.771-.875a.562.562 0 0 1 .045-.782.549.549 0 0 1 .775.045c.262.296.517.585.772.867l.695.788c.2.227.18.58-.045.783a.54.54 0 0 1-.397.14h-.008zm7.416-.979a.53.53 0 0 1-.426-.247.553.553 0 0 1 .162-.768l.969-.64a.984.984 0 0 1 .543-.14c.49.029.884.444.9.942l-.003.051-.038.272a.558.558 0 0 1-.629.468.555.555 0 0 1-.464-.472l-.68.45a.537.537 0 0 1-.335.092v-.008zM27.07 85.982a.519.519 0 0 1-.412-.231 23.136 23.136 0 0 1-1.225-1.901.555.555 0 0 1 .198-.76.543.543 0 0 1 .752.2c.353.613.737 1.206 1.171 1.816a.556.556 0 0 1-.476.876h-.008zm57.241 3.307a.541.541 0 0 1-.478-.353 85.505 85.505 0 0 0-.821-2.04.567.567 0 0 1 .291-.732c.279-.117.601.013.725.294.284.668.56 1.358.833 2.07a.558.558 0 0 1-.542.754l-.008.007zm6.116-1.846a1.083 1.083 0 0 1-.261-.052l-1.144-.4a.559.559 0 0 1-.34-.708.552.552 0 0 1 .702-.345l1.028.364.14-.26a.541.541 0 0 1 .746-.222.55.55 0 0 1 .22.753l-.197.374a.952.952 0 0 1-.895.504v-.008zm-4.71-1.643a.37.37 0 0 1-.153-.031l-2.07-.728a.56.56 0 0 1-.341-.708.552.552 0 0 1 .702-.345l2.07.728a.56.56 0 0 1 .341.708.541.541 0 0 1-.55.369v.007zm-61.45-5.01a.554.554 0 0 1-.478-.347 42.93 42.93 0 0 1-.51-1.319l-.045-.128.008-.133c.01-.051.002-.155.012-.207l.008-.133c.034-.205.09-.41.182-.611a.544.544 0 0 1 .727-.27c.272.127.392.46.266.735a.62.62 0 0 0-.053.152l-.042.127.03.206s.007 0 0 .015c.114.295.26.689.446 1.151a.559.559 0 0 1-.299.724.515.515 0 0 1-.237.038h-.014zm68.452 2.793a.55.55 0 0 1-.451-.819l1.045-1.954a.543.543 0 0 1 .746-.224c.27.149.369.48.22.754l-1.044 1.954a.554.554 0 0 1-.516.289zm-66.464-7.709a.557.557 0 0 1-.38-.918l1.454-1.672a.545.545 0 0 1 .773-.051c.23.206.247.555.05.78L26.7 75.678a.55.55 0 0 1-.444.189v.007zm3.888-4.435a.555.555 0 0 1-.337-.138.557.557 0 0 1-.043-.78c.51-.57 1.004-1.12 1.482-1.648a.544.544 0 0 1 .78-.029c.223.206.24.555.028.787-.478.52-.965 1.07-1.475 1.641a.542.542 0 0 1-.443.182l.008-.015zm67.686 1.58a.543.543 0 0 1-.513-.52.407.407 0 0 0-.028-.164c-.09-.331-.434-.61-.805-.906a7.369 7.369 0 0 1-.28-.231l.709-.848c.084.071.168.136.252.207.47.376.996.799 1.176 1.49.036.129.05.263.058.39a.555.555 0 0 1-.518.584l-.066-.004.015.001zm-63.68-5.896a.556.556 0 0 1-.356-.947 51.907 51.907 0 0 1 1.602-1.552.542.542 0 0 1 .775.038.555.555 0 0 1-.038.783c-.496.46-1.009.956-1.57 1.516a.533.533 0 0 1-.42.161h.007zm59.579 1.828a.553.553 0 0 1-.323-.13l-1.678-1.424a.567.567 0 0 1-.072-.782.553.553 0 0 1 .775-.073l1.685 1.423c.23.199.262.549.065.782a.54.54 0 0 1-.452.196v.008zm-55.13-5.667a.54.54 0 0 1-.426-.248.558.558 0 0 1 .154-.768c.245-.164.489-.32.731-.454.456-.27.872-.483 1.27-.66a.547.547 0 0 1 .725.286.557.557 0 0 1-.284.732c-.361.157-.747.357-1.165.6-.22.127-.448.27-.67.42a.538.538 0 0 1-.335.091zm50.624 1.894a.595.595 0 0 1-.316-.122c-.589-.479-1.156-.941-1.71-1.373a.553.553 0 0 1-.095-.776c.19-.241.53-.288.768-.096.555.439 1.13.902 1.725 1.388a.56.56 0 0 1 .08.783.56.56 0 0 1-.46.203l.008-.007zM57.173 63.3h-.007a16.573 16.573 0 0 1-2.249-.316.551.551 0 0 1-.424-.654c.061-.3.351-.491.648-.43.697.145 1.402.245 2.104.293.3.017.533.29.509.592a.55.55 0 0 1-.58.515zm3.654-.13a.548.548 0 0 1-.509-.459.547.547 0 0 1 .448-.64c.69-.123 1.361-.314 2.007-.573.278-.117.6.027.715.315a.562.562 0 0 1-.313.723c-.713.285-1.46.493-2.223.627a.803.803 0 0 1-.125.008zM44.08 61.498a.557.557 0 0 1-.046-1.107 9.552 9.552 0 0 0 2.01-.505.547.547 0 0 1 .7.336c.1.288-.05.605-.335.707-.779.28-1.486.455-2.233.56-.037-.002-.074.003-.103.001l.007.008zm7.44.364a.546.546 0 0 1-.188-.048 19.197 19.197 0 0 1-2.008-1.05.557.557 0 0 1-.19-.759.546.546 0 0 1 .752-.193c.61.368 1.243.701 1.887.99.278.128.399.453.28.735a.551.551 0 0 1-.533.332v-.007zm14.538-1.203a.553.553 0 0 1-.385-.192.562.562 0 0 1 .053-.783c.525-.458 1.01-.978 1.431-1.532a.548.548 0 0 1 .77-.103.56.56 0 0 1 .1.776c-.468.617-1 1.187-1.58 1.694a.547.547 0 0 1-.388.133v.007zm18.5.946a.578.578 0 0 1-.28-.098 31.174 31.174 0 0 0-1.818-1.18.555.555 0 0 1-.19-.759.546.546 0 0 1 .752-.193 31.52 31.52 0 0 1 1.873 1.22.556.556 0 0 1-.344 1.01h.007zm-5.178-2.686s-.066-.004-.102-.013a86.193 86.193 0 0 0-2.13-.486.551.551 0 0 1-.423-.655c.061-.3.358-.49.648-.429.87.184 1.63.361 2.165.496.297.07.477.376.402.668a.55.55 0 0 1-.568.419h.008zm-5.76-1.119s-.023 0-.037-.002c-.81-.098-1.51-.161-2.126-.16a.566.566 0 0 1-.547-.557.558.558 0 0 1 .552-.554c.66.009 1.398.066 2.258.168.298.04.517.319.478.62a.554.554 0 0 1-.579.485z" fill="#4188FF"/></g><g filter="url(#c)"><path d="M79.774 50.385c.009-.054.154-.023.282.005 5.47 1.108 4.112-.959 8.51.305 4.455 1.288 9.527 4.933 18.123 10.888.575.398 1.317.898 1.317.898l.587.463c.268.698.354.918.354.918-1.856 4.624-3.393 9.345-5.248 13.969-.081.204-.197.325-.406.28l-8.16-1.995c-.312-.072-.464.204-.527.521-4.152 20.699 6.574 40.625 6.574 40.625-.65.806-1.324 1.56-2.025 2.255-13.11 12.935-36.995 8.238-46.585 5.831-1.49-5.57-2.614-12.528-3.426-20.528-.712-7.027-.744-14.242.67-21.703a.432.432 0 0 0-.667-.31l-7.014 4.6a.434.434 0 0 1-.558-.072l-9.927-10.903-.651-.919c.015-.685.456-1.97.883-2.51 5.857-7.436 8.665-12.196 12.35-14.986 2.723-2.064 11.43-2.815 10.655-4.537l.596-.186s.152.08.147-.046l.027-.595s.01.057.006.075l.005.015a12.217 12.217 0 0 0 1.652 4.67c.56 1.006 1.044 1.578 1.119 1.572l.12.14c.127.216.416.678 1.476 1.436 2.627 2.155 6.115 3.2 9.7 2.568 1.04-.18 2.029-.497 2.95-.92 1.552-.722.46.545 1.552-.722-1.962 1.53-2.115.277-4.146.74-2.145.482-5.676 1.286-8.604-.989-3.438-2.684-3.143-7.383-3.109-7.844a11.717 11.717 0 0 0 4.605 2.227 11.87 11.87 0 0 0 5.897-.139c-.002-.007.14-.017.134-.033.005.016 1.094-.307 1.097-.3 3.757-1.17 6.296-3.331 7.689-4.751" fill="#336FB2"/><path d="m55.596 52.434.07-.022c.005.126.026.247.036.363-.023.007.023-.007 0 0l.007.023c.018.3.05.596.083.892.01.031.01.057.006.075l.005.015a10.396 10.396 0 0 0 .312 1.518c.301.994.706 1.938 1.231 2.803.56 1.007 1.12 1.572 1.12 1.572l.12.141c.126.215.415.678 1.475 1.435 2.627 2.156 6.115 3.201 9.7 2.568 1.04-.18 2.03-.497 2.951-.92 4.866-2.248 7.799-7.616 6.817-13.217l-.089-.449c.007-.061.078-.024.203-.003 5.47 1.107 5.223-.83 9.62.433 4.456 1.288 10.318 5.478 18.915 11.432.574.4 1.261.746 1.507 1.4a.356.356 0 0 0-.01.105c.05.078.092.159.119.244a68.04 68.04 0 0 1-.297 2.183c-.948 6.228-3.976 9.9-5.575 13.875a.427.427 0 0 1-.505.26l-7.35-2.553a.438.438 0 0 0-.525.52c3.535 8.367 2.838 14.227 2.93 20.87.256 5.02.596 11.918 3.404 18.224.012.039.001.085.005.126l-.013.148a.889.889 0 0 1-.211.44c-.281.3-.655.272-.699.269a14.393 14.393 0 0 0-3.882-2.121c-10.89-3.931-21.065 12.662-35.826 12.013-1.217.243-6.586-.242-8.792-1.457 0 0-.005-.016-1.123-5.455-.063-.202-.126-.403-.166-.612-1.113-5.423-2.822-12.514-2.8-21.003.019-5.607.636-10.55 1.43-14.657a.433.433 0 0 0-.54-.07l-7.014 4.602a.434.434 0 0 1-.558-.073L31.76 77.468c-.425-.462-.859-.981-.983-1.571a1.693 1.693 0 0 1-.146-.686c.016-.685.542-1.231.953-1.793 6.082-8.381 10.181-14.232 13.942-16.918" fill="#4188FF"/><path d="M54.822 51.645c.929-.35 2.258-.637 3.189-.978-.045 3.074 1.405 6.14 3.813 8.058 2.388 1.908 5.476 2.517 8.45 1.803 2.196-.533 4.172-1.718 5.505-3.604 1.773-2.517 2.31-5.863 1.41-8.803.985.075 2.35-.019 3.331.05 1.09 3.552.404 7.727-2.01 10.723-1.913 2.373-4.709 3.899-7.692 4.608l.005.016c-.173.045-.337.062-.505.098-.224.044-.456.09-.682.127a21.48 21.48 0 0 1-.824.113c-.115.01-.234.039-.35.05l-.005-.016c-3.302.256-6.147-.718-8.71-2.503-3.152-2.204-4.977-6.012-4.922-9.735l-.003-.007z" fill="#005BD3"/><path d="M77.192 48.128c.326 1.046.446 2.14.414 3.237-2.505 2.54-5.26 3.952-8.823 4.74l-.01-.031.01.03c-4.97 1.066-8.58-.426-10.25-2.183a10.028 10.028 0 0 1-.51-3.24s-.002-.008.003-.018c3.091 1.653 6.702 2.822 10.55 2.158a.335.335 0 0 1 .087-.019c3.244-.553 6.09-2.273 8.532-4.666" fill="#004299"/></g><defs><filter id="a" x="6.07" y="7.626" width="203.86" height="153.86" filterUnits="userSpaceOnUse" color-interpolation-filters="sRGB"><feFlood flood-opacity="0" result="BackgroundImageFix"/><feColorMatrix in="SourceAlpha" values="0 0 0 0 0 0 0 0 0 0 0 0 0 0 0 0 0 0 127 0" result="hardAlpha"/><feOffset dy="1.556"/><feGaussianBlur stdDeviation="5.965"/><feColorMatrix values="0 0 0 0 0 0 0 0 0 0 0 0 0 0 0 0 0 0 0.09 0"/><feBlend in2="BackgroundImageFix" result="effect1_dropShadow_121_26131"/><feColorMatrix in="SourceAlpha" values="0 0 0 0 0 0 0 0 0 0 0 0 0 0 0 0 0 0 127 0" result="hardAlpha"/><feOffset dy="1.037"/><feGaussianBlur stdDeviation=".778"/><feColorMatrix values="0 0 0 0 0 0 0 0 0 0 0 0 0 0 0 0 0 0 0.12 0"/><feBlend in2="effect1_dropShadow_121_26131" result="effect2_dropShadow_121_26131"/><feBlend in="SourceGraphic" in2="effect2_dropShadow_121_26131" result="shape"/></filter><filter id="c" x="18.701" y="37.747" width="103.023" height="103.933" filterUnits="userSpaceOnUse" color-interpolation-filters="sRGB"><feFlood flood-opacity="0" result="BackgroundImageFix"/><feColorMatrix in="SourceAlpha" values="0 0 0 0 0 0 0 0 0 0 0 0 0 0 0 0 0 0 127 0" result="hardAlpha"/><feOffset dy="1.556"/><feGaussianBlur stdDeviation="5.965"/><feColorMatrix values="0 0 0 0 0 0 0 0 0 0 0 0 0 0 0 0 0 0 0.09 0"/><feBlend in2="BackgroundImageFix" result="effect1_dropShadow_121_26131"/><feColorMatrix in="SourceAlpha" values="0 0 0 0 0 0 0 0 0 0 0 0 0 0 0 0 0 0 127 0" result="hardAlpha"/><feOffset dy="1.037"/><feGaussianBlur stdDeviation=".778"/><feColorMatrix values="0 0 0 0 0 0 0 0 0 0 0 0 0 0 0 0 0 0 0.12 0"/><feBlend in2="effect1_dropShadow_121_26131" result="effect2_dropShadow_121_26131"/><feBlend in="SourceGraphic" in2="effect2_dropShadow_121_26131" result="shape"/></filter><clipPath id="b"><path fill="#fff" transform="rotate(3.314 -913.465 381.772)" d="M0 0h80.657v82.064H0z"/></clipPath></defs></svg>